# This file uses centimeters as units for non-parametric coordinates.

mtllib rail.mtl
g default
v -1.544754 0.780367 -0.447270
v 0.289364 0.780367 -0.447270
v -1.544754 1.073096 -0.447270
v 0.289364 1.073096 -0.447270
v -1.544754 1.073096 -0.898706
v 0.289364 1.073096 -0.898706
v -1.544754 0.780367 -0.898706
v 0.289364 0.780367 -0.898706
v -3.398172 0.780367 -0.898706
v -3.398172 0.780367 -0.447270
v -3.398172 1.073096 -0.447270
v -3.398172 1.073096 -0.898706
v 3.717053 0.780367 -0.898706
v 3.717053 0.780367 -0.447270
v 3.717053 1.073096 -0.898706
v 3.717053 1.073096 -0.447270
v 3.717053 1.162010 -0.668955
v 0.289364 1.162010 -0.668955
v -1.544754 1.162010 -0.668955
v -3.398172 1.162010 -0.668955
v -3.398172 0.691454 -0.668955
v -1.544754 0.691453 -0.668955
v 0.289364 0.691454 -0.668955
v 3.717053 0.691454 -0.668955
v -2.779438 1.073096 -0.447270
v -2.779438 0.780367 -0.447270
v -2.779438 0.691454 -0.668955
v -2.779438 0.780367 -0.898706
v -2.779438 1.073096 -0.898706
v -2.779438 1.162010 -0.668955
v -2.160043 1.073096 -0.447270
v -2.160043 0.780367 -0.447270
v -2.160043 0.691454 -0.668955
v -2.160043 0.780367 -0.898706
v -2.160043 1.073096 -0.898706
v -2.160043 1.162010 -0.668955
v 0.858529 1.073096 -0.447270
v 0.858529 1.162010 -0.668955
v 0.858529 1.073096 -0.898706
v 0.858529 0.780367 -0.898706
v 0.858529 0.691454 -0.668955
v 0.858529 0.780367 -0.447270
v 1.462243 1.073096 -0.447270
v 1.462243 1.162010 -0.668955
v 1.462243 1.073096 -0.898706
v 1.462243 0.780367 -0.898706
v 1.462243 0.691454 -0.668955
v 1.462243 0.780367 -0.447270
v -0.913412 1.073096 -0.447270
v -0.913412 1.162010 -0.668955
v -0.913412 1.073096 -0.898706
v -0.913412 0.780367 -0.898706
v -0.913412 0.691454 -0.668955
v -0.913412 0.780367 -0.447270
v -0.317538 1.073096 -0.447270
v -0.317538 1.162010 -0.668955
v -0.317538 1.073096 -0.898706
v -0.317538 0.780367 -0.898706
v -0.317538 0.691454 -0.668955
v -0.317538 0.780367 -0.447270
v 2.034596 1.073096 -0.447270
v 2.034596 1.162010 -0.668955
v 2.034596 1.073096 -0.898706
v 2.034596 0.780367 -0.898706
v 2.034596 0.691454 -0.668955
v 2.034596 0.780367 -0.447270
v 2.599108 1.073096 -0.447270
v 2.599108 1.162010 -0.668955
v 2.599108 1.073096 -0.898706
v 2.599108 0.780367 -0.898706
v 2.599108 0.691454 -0.668955
v 2.599108 0.780367 -0.447270
v 3.187142 1.073096 -0.447270
v 3.187142 1.162010 -0.668955
v 3.187142 1.073096 -0.898706
v 3.187142 0.780367 -0.898706
v 3.187142 0.691454 -0.668955
v 3.187142 0.780367 -0.447270
v 2.778702 -0.040126 -1.001965
v 3.007548 -0.040126 -1.001965
v 2.778702 -0.040405 -1.166456
v 3.007548 -0.040405 -1.166456
v -2.367782 -0.036098 -0.214153
v -2.367782 -0.035839 -0.357126
v -2.571700 -0.036098 -0.214153
v -2.571700 -0.035839 -0.357126
v 1.028265 -0.035811 -0.372826
v 1.028265 -0.036126 -0.198453
v 1.292506 -0.035811 -0.372826
v 1.292506 -0.036126 -0.198453
v -0.732546 -0.032277 -1.172919
v -0.732546 -0.031663 -0.972068
v -0.498404 -0.032277 -1.172919
v -0.498404 -0.031663 -0.972068
vt 0.375000 0.000000
vt 0.625000 0.000000
vt 0.375000 0.250000
vt 0.625000 0.250000
vt 0.375000 0.500000
vt 0.625000 0.500000
vt 0.375000 0.750000
vt 0.625000 0.750000
vt 0.375000 1.000000
vt 0.625000 1.000000
vt 0.875000 0.000000
vt 0.875000 0.250000
vt 0.125000 0.000000
vt 0.125000 0.250000
vt 0.125000 0.000000
vt 0.375000 0.000000
vt 0.375000 0.250000
vt 0.125000 0.250000
vt 0.625000 0.000000
vt 0.875000 0.000000
vt 0.875000 0.250000
vt 0.625000 0.250000
vt 0.748302 0.250000
vt 0.625000 0.373302
vt 0.748302 0.250000
vt 0.251698 0.250000
vt 0.375000 0.373302
vt 0.251698 0.250000
vt 0.251698 0.000000
vt 0.251698 0.000000
vt 0.375000 0.876698
vt 0.625000 0.876698
vt 0.748302 0.000000
vt 0.748302 0.000000
vt 0.375000 0.250000
vt 0.375000 0.000000
vt 0.251698 0.000000
vt 0.125000 0.000000
vt 0.125000 0.250000
vt 0.251698 0.250000
vt 0.375000 0.250000
vt 0.375000 0.000000
vt 0.251698 0.000000
vt 0.125000 0.000000
vt 0.125000 0.250000
vt 0.251698 0.250000
vt 0.625000 0.250000
vt 0.748302 0.250000
vt 0.875000 0.250000
vt 0.875000 0.000000
vt 0.748302 0.000000
vt 0.625000 0.000000
vt 0.625000 0.250000
vt 0.748302 0.250000
vt 0.875000 0.250000
vt 0.875000 0.000000
vt 0.748302 0.000000
vt 0.625000 0.000000
vt 0.450757 0.250000
vt 0.450757 0.373302
vt 0.450757 0.500000
vt 0.450757 0.750000
vt 0.450757 0.876698
vt 0.450757 0.000000
vt 0.450757 1.000000
vt 0.573381 0.250000
vt 0.573381 0.373302
vt 0.573381 0.500000
vt 0.573381 0.750000
vt 0.573381 0.876698
vt 0.573381 0.000000
vt 0.573381 1.000000
vt 0.625000 0.250000
vt 0.748302 0.250000
vt 0.875000 0.250000
vt 0.875000 0.000000
vt 0.748302 0.000000
vt 0.625000 0.000000
vt 0.625000 0.250000
vt 0.748302 0.250000
vt 0.875000 0.250000
vt 0.875000 0.000000
vt 0.748302 0.000000
vt 0.625000 0.000000
vt 0.625000 0.250000
vt 0.748302 0.250000
vt 0.875000 0.250000
vt 0.875000 0.000000
vt 0.748302 0.000000
vt 0.625000 0.000000
vt 0.748302 0.000000
vt 0.748302 0.000000
vt 0.875000 0.000000
vt 0.875000 0.000000
vt 0.251698 0.000000
vt 0.375000 0.000000
vt 0.375000 0.000000
vt 0.251698 0.000000
vt 0.625000 0.000000
vt 0.748302 0.000000
vt 0.748302 0.000000
vt 0.625000 0.000000
vt 0.450757 0.876698
vt 0.450757 0.750000
vt 0.573381 0.750000
vt 0.573381 0.876698
vn -0.000000 0.000000 1.000000
vn 0.000000 0.000000 1.000000
vn -0.000000 0.000000 1.000000
vn 0.000000 0.000000 1.000000
vn 0.000000 0.928130 0.372255
vn 0.000000 0.928130 0.372256
vn 0.000000 1.000000 0.000000
vn 0.000000 1.000000 0.000000
vn 0.000000 0.000000 -1.000000
vn -0.000000 0.000000 -1.000000
vn -0.000000 0.000000 -1.000000
vn -0.000000 0.178967 -0.983855
vn 0.000000 -1.000000 -0.000000
vn 0.000000 -0.992029 0.126009
vn -0.000000 -0.928131 0.372255
vn 0.000000 -0.928130 0.372256
vn 1.000000 0.000000 0.000000
vn 1.000000 0.000000 0.000000
vn 1.000000 0.000000 0.000000
vn 1.000000 0.000000 0.000000
vn -1.000000 0.000000 0.000000
vn -1.000000 0.000000 0.000000
vn -1.000000 0.000000 0.000000
vn -1.000000 0.000000 0.000000
vn -0.000000 -0.991515 -0.129991
vn -0.000000 -0.928130 0.372256
vn -0.000000 0.153050 0.988218
vn 0.000000 0.000000 1.000000
vn 0.000000 0.928130 0.372256
vn 0.000000 1.000000 0.000000
vn 0.000000 0.000000 -1.000000
vn 0.000000 0.000000 -1.000000
vn 0.000000 -0.928130 0.372256
vn 0.000000 -1.000000 0.000000
vn 0.000000 -0.928130 0.372255
vn 0.000000 -0.990922 -0.134441
vn 0.000000 0.000000 -1.000000
vn 0.000000 0.000000 -1.000000
vn 0.000000 0.000000 -1.000000
vn 0.000000 0.000000 -1.000000
vn 0.000000 1.000000 0.000000
vn 0.000000 0.928131 0.372255
vn 0.000000 1.000000 0.000000
vn 0.000000 0.928130 0.372255
vn 0.000000 0.000000 1.000000
vn 0.000000 0.000000 1.000000
vn 0.000000 0.000000 1.000000
vn 0.000000 0.158648 0.987335
vn 0.000000 0.932599 -0.360916
vn 0.000000 0.932599 -0.360915
vn 0.000000 0.932598 -0.360916
vn 0.000000 0.932598 -0.360916
vn 0.000000 0.932598 -0.360916
vn -1.000000 0.000000 0.000000
vn -1.000000 0.000000 0.000000
vn 0.000000 -0.932598 -0.360916
vn -0.000000 -0.932598 -0.360916
vn 0.000000 -0.932599 -0.360915
vn 0.000000 -0.932599 -0.360916
vn 0.000000 -0.932598 -0.360916
vn 1.000000 0.000000 0.000000
vn 1.000000 0.000000 0.000000
vn 0.000000 0.145107 0.989416
vn 0.000000 0.000000 1.000000
vn 0.000000 0.000000 1.000000
vn 0.000000 0.000000 1.000000
vn 0.000000 -0.991577 -0.129520
vn 0.000000 -0.928130 0.372256
vn 0.000000 -1.000000 0.000000
vn 0.000000 -0.928130 0.372256
vn 0.000000 -0.932598 -0.360916
vn 0.000000 -0.932598 -0.360916
vn 0.000000 0.000000 -1.000000
vn 0.000000 0.000000 -1.000000
vn 0.000000 0.000000 -1.000000
vn 0.000000 0.000000 -1.000000
vn 0.000000 1.000000 0.000000
vn 0.000000 1.000000 0.000000
vn 0.000000 0.932598 -0.360916
vn 0.000000 0.932598 -0.360916
vn 0.000000 0.928130 0.372256
vn 0.000000 0.928130 0.372255
vn 0.000000 -0.999998 -0.001808
vn 0.000000 -0.999998 -0.001808
vn 0.000000 -0.999998 -0.001808
vn 0.000000 -0.999998 -0.001807
vn 0.000000 1.000000 -0.000001
vn 0.000000 0.928131 0.372255
vn 0.000000 0.932598 -0.360917
vn 0.000000 0.000000 -1.000000
vn 0.000000 0.000000 -1.000000
vn 0.000000 -0.990986 -0.133963
vn 0.000000 -0.932599 -0.360916
vn 0.000000 -0.999998 -0.001808
vn 0.000000 -0.999998 -0.001808
vn 0.000000 -0.999998 -0.001807
vn 0.000000 -0.999998 -0.001807
vn 0.000000 0.000000 1.000000
vn 0.000000 0.167090 0.985942
vn 0.000000 1.000000 0.000000
vn 0.000000 0.928130 0.372256
vn 0.000000 0.932598 -0.360916
vn 0.000000 0.000000 -1.000000
vn 0.000000 0.000000 -1.000000
vn 0.000000 -1.000000 -0.000000
vn 0.000000 -0.932598 -0.360916
vn 0.000000 -0.928131 0.372255
vn 0.000000 -0.928130 0.372255
vn 0.000000 0.000000 1.000000
vn 0.000000 0.000000 1.000000
vn 0.000000 0.928130 0.372256
vn 0.000000 1.000000 0.000000
vn 0.000000 0.932598 -0.360916
vn 0.000000 0.171396 -0.985202
vn 0.000000 0.000000 -1.000000
vn 0.000000 -0.999995 0.003056
vn 0.000000 -0.999995 0.003056
vn 0.000000 -0.999995 0.003056
vn 0.000000 -0.999995 0.003056
vn 0.000000 -0.928130 0.372255
vn 0.000000 -0.991596 0.129376
vn 0.000000 0.000000 1.000000
vn 0.000000 0.000000 1.000000
vn 0.000000 -0.932598 -0.360916
vn 0.000000 1.000000 0.000000
vn 0.000000 0.928130 0.372256
vn 0.000000 0.932598 -0.360916
vn 0.000000 0.177942 -0.984041
vn 0.000000 0.000000 -1.000000
vn 0.000000 -0.990914 0.134500
vn 0.000000 -0.932598 -0.360916
vn 0.000000 -0.928130 0.372256
vn 0.000000 0.000000 1.000000
vn 0.000000 0.000000 1.000000
vn 0.000000 1.000000 -0.000000
vn 0.000000 0.928130 0.372256
vn 0.000000 0.932598 -0.360916
vn 0.000000 0.171651 -0.985158
vn 0.000000 0.000000 -1.000000
vn 0.000000 -0.999999 0.001700
vn 0.000000 -0.999999 0.001700
vn 0.000000 -0.999999 0.001700
vn 0.000000 -0.999999 0.001700
vn 0.000000 -0.928130 0.372256
vn 0.000000 -0.990141 0.140075
vn 0.000000 0.000000 1.000000
vn 0.000000 0.000000 1.000000
vn 0.000000 1.000000 0.000000
vn 0.000000 0.928130 0.372256
vn 0.000000 0.932598 -0.360916
vn 0.000000 0.000000 -1.000000
vn 0.000000 0.000000 -1.000000
vn 0.000000 -1.000000 0.000000
vn 0.000000 -0.932598 -0.360916
vn 0.000000 -0.932598 -0.360916
vn 0.000000 -0.928130 0.372256
vn 0.000000 0.000000 1.000000
vn 0.000000 0.000000 1.000000
vn 0.000000 -0.414292 0.910144
vn 0.000000 -0.414292 0.910144
vn 0.000000 -0.414292 0.910144
vn 0.000000 -0.414292 0.910144
vn -0.975859 -0.203682 -0.078825
vn -0.976193 -0.204620 -0.071955
vn -0.977163 -0.211905 -0.015745
vn -0.976863 -0.213866 0.000364
vn 0.000000 0.310133 -0.950693
vn 0.000000 0.310133 -0.950693
vn 0.975859 -0.203680 -0.078825
vn 0.977163 -0.211905 -0.015745
vn 0.976194 -0.204618 -0.071955
vn 0.976863 -0.213867 0.000364
vn 0.967209 -0.235730 0.094546
vn 0.967637 -0.236585 0.087785
vn 0.969436 -0.244516 0.020127
vn 0.969092 -0.246701 -0.000446
vn 0.000000 0.274548 0.961574
vn 0.000000 0.274548 0.961573
vn -0.967209 -0.235730 0.094546
vn -0.969437 -0.244515 0.020127
vn -0.967637 -0.236585 0.087785
vn -0.969092 -0.246700 -0.000446
vn 0.000000 -0.394060 -0.919085
vn 0.000000 -0.394060 -0.919085
vn 0.000000 -0.394060 -0.919085
vn 0.000000 -0.394061 -0.919084
vn -0.977425 -0.196097 0.078651
vn -0.979212 -0.202327 0.014412
vn -0.977888 -0.196953 0.070314
vn -0.979046 -0.203641 -0.000368
vn 0.000000 -0.377118 -0.926165
vn 0.000000 -0.377118 -0.926165
vn 0.000000 -0.377117 -0.926165
vn 0.000000 -0.377117 -0.926165
vn 0.977425 -0.196097 0.078651
vn 0.977888 -0.196954 0.070314
vn 0.979212 -0.202328 0.014412
vn 0.979046 -0.203641 -0.000368
vn 0.000000 0.291504 0.956570
vn 0.000000 0.291504 0.956570
vn -0.974393 -0.209698 -0.081153
vn -0.974983 -0.210788 -0.070541
vn -0.976252 -0.216201 -0.013747
vn -0.976068 -0.217462 0.000665
vn 0.000000 0.319722 -0.947512
vn 0.000000 0.319722 -0.947512
vn 0.974393 -0.209697 -0.081153
vn 0.976252 -0.216201 -0.013747
vn 0.974983 -0.210788 -0.070541
vn 0.976068 -0.217462 0.000665
vn 0.000000 -0.386587 0.922253
vn 0.000000 -0.386587 0.922253
vn 0.000000 -0.386587 0.922253
vn 0.000000 -0.386587 0.922253
s 1
g pCube1
usemtl initialShadingGroup
f 1/1/1 54/64/2 3/3/3
f 3/3/3 54/64/2 49/59/4
s 2
f 3/3/5 49/59/6 19/27/7
f 19/27/7 49/59/6 50/60/8
s 3
f 5/5/9 51/61/10 7/7/11
f 7/7/11 51/61/10 52/62/12
s 4
f 22/31/13 53/63/14 1/9/15
f 1/9/15 53/63/14 54/65/16
s 5
f 14/19/17 24/34/18 16/22/19
f 16/22/19 24/34/18 17/23/20
s 6
f 21/29/21 10/16/22 20/28/23
f 20/28/23 10/16/22 11/17/24
s 4
f 22/30/13 1/1/15 33/43/25
f 33/43/25 1/1/15 32/42/26
s 1
f 1/1/1 3/3/3 32/42/27
f 32/42/27 3/3/3 31/41/28
s 2
f 3/3/5 19/26/7 31/41/29
f 31/41/29 19/26/7 36/46/30
s 3
f 5/14/9 7/13/11 35/45/31
f 35/45/31 7/13/11 34/44/32
s 4
f 2/2/33 23/33/34 42/52/35
f 42/52/35 23/33/34 41/51/36
s 3
f 8/11/37 6/12/38 40/50/39
f 40/50/39 6/12/38 39/49/40
s 2
f 18/25/41 4/4/42 38/48/43
f 38/48/43 4/4/42 37/47/44
s 1
f 4/4/45 2/2/46 37/47/47
f 37/47/47 2/2/46 42/52/48
s 2
f 6/12/49 18/25/41 39/49/50
f 39/49/50 18/25/41 38/48/43
f 19/27/7 50/60/8 5/5/51
f 5/5/51 50/60/8 51/61/52
f 36/46/30 19/26/7 35/45/53
f 35/45/53 19/26/7 5/14/51
s 6
f 9/15/54 21/29/21 12/18/55
f 12/18/55 21/29/21 20/28/23
s 4
f 7/13/56 22/30/13 34/44/57
f 34/44/57 22/30/13 33/43/25
f 7/7/56 52/62/58 22/31/13
f 22/31/13 52/62/58 53/63/14
f 41/51/36 23/33/34 40/50/59
f 40/50/59 23/33/34 8/11/60
s 5
f 17/23/20 24/34/18 15/21/61
f 15/21/61 24/34/18 13/20/62
s 1
f 26/36/63 25/35/64 10/16/65
f 10/16/65 25/35/64 11/17/66
s 4
f 27/37/67 26/36/68 21/29/69
f 21/29/69 26/36/68 10/16/70
f 28/38/71 27/37/67 9/15/72
f 9/15/72 27/37/67 21/29/69
s 3
f 29/39/73 28/38/74 12/18/75
f 12/18/75 28/38/74 9/15/76
s 2
f 20/28/77 30/40/78 12/18/79
f 12/18/79 30/40/78 29/39/80
f 25/35/81 30/40/78 11/17/82
f 11/17/82 30/40/78 20/28/77
s 1
f 32/42/27 31/41/28 26/36/63
f 26/36/63 31/41/28 25/35/64
s 19
f 84/95/83 83/96/84 86/98/85
f 86/98/85 83/96/84 85/97/86
s 4
f 34/44/57 33/43/25 28/38/71
f 28/38/71 33/43/25 27/37/67
s 3
f 35/45/31 34/44/32 29/39/73
f 29/39/73 34/44/32 28/38/74
s 2
f 30/40/78 36/46/30 29/39/80
f 29/39/80 36/46/30 35/45/53
f 31/41/29 36/46/30 25/35/81
f 25/35/81 36/46/30 30/40/78
f 38/48/43 37/47/44 44/54/87
f 44/54/87 37/47/44 43/53/88
f 39/49/50 38/48/43 45/55/89
f 45/55/89 38/48/43 44/54/87
s 3
f 40/50/39 39/49/40 46/56/90
f 46/56/90 39/49/40 45/55/91
s 4
f 47/57/92 41/51/36 46/56/93
f 46/56/93 41/51/36 40/50/59
s 20
f 88/99/94 87/100/95 90/102/96
f 90/102/96 87/100/95 89/101/97
s 1
f 37/47/47 42/52/48 43/53/98
f 43/53/98 42/52/48 48/58/99
s 2
f 44/54/87 43/53/88 62/74/100
f 62/74/100 43/53/88 61/73/101
f 45/55/89 44/54/87 63/75/102
f 63/75/102 44/54/87 62/74/100
s 3
f 46/56/90 45/55/91 64/76/103
f 64/76/103 45/55/91 63/75/104
s 4
f 65/77/105 47/57/92 64/76/106
f 64/76/106 47/57/92 46/56/93
f 48/58/107 47/57/92 66/78/108
f 66/78/108 47/57/92 65/77/105
s 1
f 43/53/98 48/58/99 61/73/109
f 61/73/109 48/58/99 66/78/110
s 2
f 49/59/6 55/66/111 50/60/8
f 50/60/8 55/66/111 56/67/112
f 51/61/52 50/60/8 57/68/113
f 57/68/113 50/60/8 56/67/112
s 3
f 52/62/12 51/61/10 58/69/114
f 58/69/114 51/61/10 57/68/115
s 22
f 92/103/116 91/104/117 94/106/118
f 94/106/118 91/104/117 93/105/119
s 4
f 54/65/16 53/63/14 60/72/120
f 60/72/120 53/63/14 59/70/121
s 1
f 49/59/4 54/64/2 55/66/122
f 55/66/122 54/64/2 60/71/123
s 2
f 55/66/111 4/4/42 56/67/112
f 56/67/112 4/4/42 18/24/41
f 57/68/113 56/67/112 6/6/49
f 6/6/49 56/67/112 18/24/41
s 3
f 58/69/114 57/68/115 8/8/37
f 8/8/37 57/68/115 6/6/38
s 4
f 59/70/121 58/69/124 23/32/34
f 23/32/34 58/69/124 8/8/60
f 60/72/120 59/70/121 2/10/33
f 2/10/33 59/70/121 23/32/34
s 1
f 55/66/122 60/71/123 4/4/45
f 4/4/45 60/71/123 2/2/46
s 2
f 62/74/100 61/73/101 68/80/125
f 68/80/125 61/73/101 67/79/126
f 63/75/102 62/74/100 69/81/127
f 69/81/127 62/74/100 68/80/125
s 3
f 64/76/103 63/75/104 70/82/128
f 70/82/128 63/75/104 69/81/129
s 4
f 71/83/130 65/77/105 70/82/131
f 70/82/131 65/77/105 64/76/106
f 66/78/108 65/77/105 72/84/132
f 72/84/132 65/77/105 71/83/130
s 1
f 61/73/109 66/78/110 67/79/133
f 67/79/133 66/78/110 72/84/134
s 2
f 68/80/125 67/79/126 74/86/135
f 74/86/135 67/79/126 73/85/136
f 69/81/127 68/80/125 75/87/137
f 75/87/137 68/80/125 74/86/135
s 3
f 70/82/128 69/81/129 76/88/138
f 76/88/138 69/81/129 75/87/139
s 24
f 80/91/140 79/92/141 82/94/142
f 82/94/142 79/92/141 81/93/143
s 4
f 72/84/132 71/83/130 78/90/144
f 78/90/144 71/83/130 77/89/145
s 1
f 67/79/133 72/84/134 73/85/146
f 73/85/146 72/84/134 78/90/147
s 2
f 74/86/135 73/85/136 17/23/148
f 17/23/148 73/85/136 16/22/149
f 75/87/137 74/86/135 15/21/150
f 15/21/150 74/86/135 17/23/148
s 3
f 76/88/138 75/87/139 13/20/151
f 13/20/151 75/87/139 15/21/152
s 4
f 24/34/153 77/89/145 13/20/154
f 13/20/154 77/89/145 76/88/155
f 78/90/144 77/89/145 14/19/156
f 14/19/156 77/89/145 24/34/153
s 1
f 73/85/146 78/90/147 16/22/157
f 16/22/157 78/90/147 14/19/158
s 26
f 77/89/159 71/83/160 80/91/161
f 80/91/161 71/83/160 79/92/162
s 27
f 71/83/163 70/82/164 79/92/165
f 79/92/165 70/82/164 81/93/166
s 3
f 70/82/128 76/88/138 81/93/167
f 81/93/167 76/88/138 82/94/168
s 28
f 77/89/169 80/91/170 76/88/171
f 76/88/171 80/91/170 82/94/172
s 29
f 33/43/173 32/42/174 84/95/175
f 84/95/175 32/42/174 83/96/176
s 1
f 32/42/27 26/36/63 83/96/177
f 83/96/177 26/36/63 85/97/178
s 30
f 27/37/179 86/98/180 26/36/181
f 26/36/181 86/98/180 85/97/182
s 31
f 27/37/183 33/43/184 86/98/185
f 86/98/185 33/43/184 84/95/186
s 32
f 41/51/187 87/100/188 42/52/189
f 42/52/189 87/100/188 88/99/190
s 33
f 41/51/191 47/57/192 87/100/193
f 87/100/193 47/57/192 89/101/194
s 34
f 47/57/195 48/58/196 89/101/197
f 89/101/197 48/58/196 90/102/198
s 1
f 48/58/99 42/52/48 90/102/199
f 90/102/199 42/52/48 88/99/200
s 35
f 53/63/201 52/62/202 92/103/203
f 92/103/203 52/62/202 91/104/204
s 3
f 52/62/12 58/69/114 91/104/205
f 91/104/205 58/69/114 93/105/206
s 36
f 59/70/207 94/106/208 58/69/209
f 58/69/209 94/106/208 93/105/210
s 37
f 59/70/211 53/63/212 94/106/213
f 94/106/213 53/63/212 92/103/214
